# xmcd CD database file
#
# Track frame offsets:
#	150
#	15729
#	35647
#	49527
#	66898
#	82128
#	95663
#	114314
#	132994
#	150224
#	168787
#	184321
#	199108
#	218237
#	235174
#	250455
#
# Disc length: 3488 seconds
#
# Revision: 0
# Processed by: cddbd v1.5.1PL0 Copyright (c) Steve Scherf et al.
# Submitted via: CDex 1.51
#
DISCID=d90d9e10
DTITLE=Brian Crain - Piano Innocence
DYEAR=2003
DGENRE=New Age
TTITLE0=Butterfly Waltz
TTITLE1=A Walk In The Forest
TTITLE2=Kindred Spirits
TTITLE3=Break In The Clouds
TTITLE4=White Dove
TTITLE5=Dancing By Starlights
TTITLE6=Thunder Cloud
TTITLE7=Northern Light
TTITLE8=Fly Away
TTITLE9=Flight Of The Eagle
TTITLE10=Clouds Roll By
TTITLE11=April Breeze
TTITLE12=A Simple Life
TTITLE13=Butterfly Waltz (Piano Solo)
TTITLE14=Morning Light
TTITLE15=Broken Shadows
EXTD=YEAR: 2003
EXTT0=
EXTT1=
EXTT2=
EXTT3=
EXTT4=
EXTT5=
EXTT6=
EXTT7=
EXTT8=
EXTT9=
EXTT10=
EXTT11=
EXTT12=
EXTT13=
EXTT14=
EXTT15=
PLAYORDER=
